<?xml version="1.0" encoding="UTF-8"?>
<svg xmlns="http://www.w3.org/2000/svg" xmlns:xlink="http://www.w3.org/1999/xlink" width="20pt" height="20pt" viewBox="0 0 20 20" version="1.1">
<g id="surface1">
<path style=" stroke:none;fill-rule:nonzero;fill:rgb(0%,0%,0%);fill-opacity:1;" d="M 7.199219 18.800781 C 7.199219 19.292969 7.507812 19.601562 8 19.601562 C 8.492188 19.601562 8.800781 19.292969 8.800781 18.800781 L 8.800781 11.199219 L 9.601562 11.199219 L 9.601562 18.800781 C 9.601562 19.292969 9.90625 19.601562 10.398438 19.601562 C 10.894531 19.601562 11.199219 19.292969 11.199219 18.800781 L 11.199219 6 L 11.601562 6 L 11.601562 10.726562 C 11.601562 11.683594 12.800781 11.683594 12.800781 10.726562 L 12.800781 5.863281 C 12.800781 4.804688 12.039062 4 10.800781 4 L 7.601562 4 C 6.472656 4 5.601562 4.6875 5.601562 5.835938 L 5.601562 10.800781 C 5.601562 11.601562 6.800781 11.601562 6.800781 10.800781 L 6.800781 6 L 7.199219 6 Z M 7.199219 18.800781 "/>
<path style=" stroke:none;fill-rule:nonzero;fill:rgb(0%,0%,0%);fill-opacity:1;" d="M 10.800781 1.851562 C 10.800781 2.761719 10.0625 3.5 9.148438 3.5 C 8.238281 3.5 7.5 2.761719 7.5 1.851562 C 7.5 0.9375 8.238281 0.199219 9.148438 0.199219 C 10.0625 0.199219 10.800781 0.9375 10.800781 1.851562 Z M 10.800781 1.851562 "/>
</g>
</svg>
